<?xml version="1.0" encoding="UTF-8"?>
<svg xmlns="http://www.w3.org/2000/svg" xmlns:xlink="http://www.w3.org/1999/xlink" width="100px" height="73px" viewBox="0 0 100 73" version="1.1">
<g id="surface1">
<path style=" stroke:none;fill-rule:nonzero;fill:rgb(95.294118%,84.705882%,100%);fill-opacity:1;" d="M 32.175781 51.953125 L 32.175781 44.265625 L 64.085938 44.265625 L 64.085938 51.953125 Z M 32.175781 51.953125 "/>
<path style="fill:none;stroke-width:3;stroke-linecap:butt;stroke-linejoin:miter;stroke:rgb(0%,100%,94.117647%);stroke-opacity:1;stroke-miterlimit:10;" d="M 142.001006 193.614531 L 142.001006 168.010712 L 283.665164 168.010712 L 283.665164 193.614531 Z M 142.001006 193.614531 " transform="matrix(0.343104,0,0,0.34434,-32.392917,-25.3996)"/>
<path style="fill:none;stroke-width:27;stroke-linecap:butt;stroke-linejoin:miter;stroke:rgb(95.294118%,84.705882%,100%);stroke-opacity:1;stroke-miterlimit:10;" d="M 371.193418 181.056521 C 371.193418 231.311248 330.230013 272.05955 279.691783 272.05955 C 229.153552 272.05955 188.190147 231.311248 188.190147 181.056521 C 188.190147 130.801794 229.153552 90.053492 279.691783 90.053492 C 330.230013 90.053492 371.193418 130.801794 371.193418 181.056521 Z M 371.193418 181.056521 " transform="matrix(0.343104,0,0,0.34434,-32.392917,-25.3996)"/>
<path style="fill:none;stroke-width:0.5;stroke-linecap:butt;stroke-linejoin:miter;stroke:rgb(41.176471%,93.333333%,90.980392%);stroke-opacity:1;stroke-miterlimit:10;" d="M 265.187231 131.051366 Z M 265.187231 131.051366 " transform="matrix(0.343104,0,0,0.34434,-32.392917,-25.3996)"/>
<path style="fill:none;stroke-width:25;stroke-linecap:butt;stroke-linejoin:miter;stroke:rgb(87.45098%,100%,99.215686%);stroke-opacity:1;stroke-miterlimit:10;" d="M 203.503038 271.617127 C 202.819935 271.628471 202.148217 271.639816 201.465114 271.639816 C 150.938269 271.639816 109.986249 230.494467 109.986249 179.75194 C 109.986249 128.998069 150.938269 87.864065 201.465114 87.864065 C 201.624505 87.864065 201.783895 87.864065 201.943286 87.864065 " transform="matrix(0.343104,0,0,0.34434,-32.392917,-25.3996)"/>
<path style="fill:none;stroke-width:3;stroke-linecap:round;stroke-linejoin:miter;stroke:rgb(0%,100%,94.117647%);stroke-opacity:1;stroke-miterlimit:10;" d="M 201.203258 100.785089 L 201.65866 75.408153 " transform="matrix(0.343104,0,0,0.34434,-32.392917,-25.3996)"/>
<path style="fill:none;stroke-width:3;stroke-linecap:butt;stroke-linejoin:miter;stroke:rgb(0%,100%,94.117647%);stroke-opacity:1;stroke-miterlimit:10;" d="M 201.317108 283.710025 C 199.176719 283.8575 197.024945 283.936909 194.850401 283.936909 C 140.61203 283.936909 96.642972 237.221567 96.642972 179.593122 C 96.642972 121.976021 140.61203 75.260679 194.850401 75.260679 C 197.161566 75.260679 199.44996 75.340088 201.72697 75.510251 " transform="matrix(0.343104,0,0,0.34434,-32.392917,-25.3996)"/>
<path style="fill:none;stroke-width:3;stroke-linecap:butt;stroke-linejoin:miter;stroke:rgb(0%,100%,94.117647%);stroke-opacity:1;stroke-miterlimit:10;" d="M 202.546694 259.955308 C 158.349935 257.856634 123.192905 223.041339 123.192905 180.387215 C 123.192905 137.778466 158.281625 102.98586 202.421458 100.830465 " transform="matrix(0.343104,0,0,0.34434,-32.392917,-25.3996)"/>
<path style="fill:none;stroke-width:3;stroke-linecap:round;stroke-linejoin:miter;stroke:rgb(0%,100%,94.117647%);stroke-opacity:1;stroke-miterlimit:10;" d="M 202.102677 260.012029 L 201.886361 283.3697 " transform="matrix(0.343104,0,0,0.34434,-32.392917,-25.3996)"/>
<path style="fill:none;stroke-width:3;stroke-linecap:butt;stroke-linejoin:miter;stroke:rgb(67.843137%,0%,100%);stroke-opacity:1;stroke-miterlimit:10;" d="M 383.364034 180.625442 C 383.364034 238.117757 336.366554 284.731002 278.393887 284.731002 C 220.432605 284.731002 173.435125 238.117757 173.435125 180.625442 C 173.435125 123.121783 220.432605 76.508539 278.393887 76.508539 C 336.366554 76.508539 383.364034 123.121783 383.364034 180.625442 Z M 383.364034 180.625442 " transform="matrix(0.343104,0,0,0.34434,-32.392917,-25.3996)"/>
<path style="fill:none;stroke-width:3;stroke-linecap:round;stroke-linejoin:miter;stroke:rgb(67.843137%,0%,100%);stroke-opacity:1;stroke-miterlimit:10;" d="M 204.584617 200.14878 L 283.084527 201.646212 L 283.084527 226.648789 L 216.356758 226.149645 " transform="matrix(0.343104,0,0,0.34434,-32.392917,-25.3996)"/>
<path style="fill:none;stroke-width:3;stroke-linecap:butt;stroke-linejoin:miter;stroke:rgb(67.843137%,0%,100%);stroke-opacity:1;stroke-miterlimit:10;" d="M 204.607387 201.442017 C 204.596002 201.419328 204.596002 201.385296 204.584617 201.362607 " transform="matrix(0.343104,0,0,0.34434,-32.392917,-25.3996)"/>
<path style="fill:none;stroke-width:3;stroke-linecap:butt;stroke-linejoin:miter;stroke:rgb(67.843137%,0%,100%);stroke-opacity:1;stroke-miterlimit:10;" d="M 204.334146 200.341631 C 202.865475 194.272493 202.079907 187.931096 202.079907 181.396847 C 202.079907 137.903252 236.667684 102.645534 279.327461 102.645534 C 321.998623 102.645534 356.5864 137.903252 356.5864 181.396847 C 356.5864 224.890441 321.998623 260.148159 279.327461 260.148159 C 252.618137 260.148159 229.085242 246.330945 215.206868 225.32152 " transform="matrix(0.343104,0,0,0.34434,-32.392917,-25.3996)"/>
<path style="fill:none;stroke-width:3;stroke-linecap:butt;stroke-linejoin:miter;stroke:rgb(67.843137%,0%,100%);stroke-opacity:1;stroke-miterlimit:10;" d="M 204.607387 201.442017 C 204.596002 201.419328 204.596002 201.385296 204.584617 201.362607 " transform="matrix(0.343104,0,0,0.34434,-32.392917,-25.3996)"/>
<path style="fill:none;stroke-width:3;stroke-linecap:butt;stroke-linejoin:miter;stroke:rgb(67.843137%,0%,100%);stroke-opacity:1;stroke-miterlimit:10;" d="M 383.364034 180.625442 C 383.364034 238.117757 336.366554 284.731002 278.393887 284.731002 C 220.432605 284.731002 173.435125 238.117757 173.435125 180.625442 C 173.435125 123.121783 220.432605 76.508539 278.393887 76.508539 C 336.366554 76.508539 383.364034 123.121783 383.364034 180.625442 Z M 383.364034 180.625442 " transform="matrix(0.343104,0,0,0.34434,-32.392917,-25.3996)"/>
<path style=" stroke:none;fill-rule:nonzero;fill:rgb(87.45098%,100%,99.215686%);fill-opacity:1;" d="M 16.792969 40.777344 L 16.792969 32.625 L 64.710938 32.625 L 64.710938 40.777344 Z M 16.792969 40.777344 "/>
</g>
</svg>
